<svg enable-background="new 0 0 24 24" height="512" viewBox="0 0 24 24" width="512" xmlns="http://www.w3.org/2000/svg"><path d="m21.75 23h-19.5c-1.241 0-2.25-1.009-2.25-2.25v-12.1c0-.833.457-1.593 1.191-1.985l9.75-5.2c.663-.354 1.455-.354 2.118 0l9.75 5.2c.734.392 1.191 1.152 1.191 1.985v12.1c0 1.241-1.009 2.25-2.25 2.25zm-9.75-20.3c-.121 0-.243.03-.353.088l-9.75 5.2c-.245.131-.397.385-.397.662v12.1c0 .414.336.75.75.75h19.5c.414 0 .75-.336.75-.75v-12.1c0-.277-.152-.531-.397-.662l-9.75-5.2c-.11-.059-.232-.088-.353-.088z"/><path d="m11.999 16.996c-.438 0-.875-.103-1.273-.309l-10.323-5.393c-.367-.191-.509-.645-.317-1.012s.646-.508 1.012-.317l10.32 5.39c.358.185.808.185 1.169-.002l10.317-5.388c.367-.192.82-.05 1.012.317s.05.82-.317 1.012l-10.32 5.39c-.403.208-.841.312-1.28.312z"/></svg>