<svg id="Capa_1" enable-background="new 0 0 551.13 551.13" height="512" viewBox="0 0 551.13 551.13" width="512" xmlns="http://www.w3.org/2000/svg"><path d="m312.467 551.13h-73.803c-7.047 0-13.371-4.272-15.995-10.832l-14.397-35.993c-16.331-4.777-32.04-11.302-46.892-19.409l-35.623 15.272c-6.459 2.691-13.977 1.312-18.955-3.667l-52.19-52.173c-4.978-4.978-6.425-12.48-3.65-18.972l15.255-35.623c-8.124-14.902-14.633-30.611-19.409-46.858l-35.993-14.431c-6.526-2.623-10.815-8.947-10.815-15.978v-73.803c0-7.03 4.289-13.354 10.815-15.978l35.993-14.431c4.777-16.247 11.286-31.956 19.409-46.858l-15.255-35.623c-2.775-6.492-1.329-13.994 3.65-18.972l52.19-52.173c4.978-4.978 12.497-6.358 18.955-3.667l35.623 15.272c14.851-8.107 30.56-14.633 46.892-19.409l14.397-35.993c2.624-6.559 8.948-10.831 15.995-10.831h73.803c7.047 0 13.371 4.272 15.995 10.832l14.397 35.993c16.331 4.777 32.04 11.302 46.892 19.409l35.623-15.272c6.475-2.691 13.977-1.312 18.955 3.667l52.19 52.173c4.978 4.978 6.425 12.48 3.65 18.972l-15.255 35.623c8.124 14.902 14.633 30.611 19.409 46.858l35.993 14.431c6.526 2.624 10.815 8.948 10.815 15.978v73.803c0 7.03-4.289 13.354-10.815 15.978l-35.993 14.431c-4.777 16.247-11.286 31.956-19.409 46.858l15.255 35.623c2.775 6.492 1.329 13.994-3.65 18.972l-52.19 52.173c-4.978 4.978-12.48 6.358-18.955 3.667l-35.623-15.272c-14.851 8.107-30.56 14.633-46.892 19.409l-14.397 35.993c-2.624 6.559-8.948 10.831-15.995 10.831zm-62.147-34.445h50.491l13.237-33.1c2.052-5.113 6.408-8.948 11.757-10.293 19.09-4.878 37.271-12.413 54.023-22.403 4.76-2.826 10.546-3.162 15.608-1.043l32.781 14.061 35.707-35.69-14.044-32.764c-2.17-5.079-1.783-10.865 1.026-15.608 10.024-16.853 17.559-35.017 22.369-54.023 1.362-5.348 5.18-9.688 10.293-11.74l33.117-13.253v-50.525l-33.117-13.254c-5.113-2.052-8.931-6.391-10.293-11.74-4.81-19.006-12.345-37.17-22.369-54.023-2.809-4.743-3.196-10.529-1.026-15.608l14.044-32.764-35.707-35.69-32.781 14.061c-5.063 2.119-10.848 1.783-15.608-1.043-16.752-9.991-34.933-17.526-54.023-22.403-5.349-1.346-9.705-5.18-11.757-10.293l-13.237-33.1h-50.491l-13.237 33.1c-2.052 5.113-6.408 8.948-11.757 10.293-19.09 4.878-37.271 12.413-54.023 22.403-4.743 2.826-10.579 3.162-15.608 1.043l-32.781-14.061-35.707 35.69 14.044 32.764c2.17 5.079 1.783 10.865-1.026 15.608-10.024 16.853-17.559 35.017-22.369 54.023-1.362 5.348-5.18 9.688-10.293 11.74l-33.117 13.254v50.525l33.117 13.253c5.113 2.052 8.931 6.391 10.293 11.74 4.81 19.006 12.345 37.17 22.369 54.023 2.809 4.743 3.196 10.529 1.026 15.608l-14.044 32.764 35.707 35.69 32.781-14.061c5.029-2.119 10.865-1.783 15.608 1.043 16.752 9.991 34.933 17.526 54.023 22.403 5.348 1.346 9.705 5.18 11.757 10.293 0 0 13.237 33.1 13.237 33.1zm283.587-204.219h.336z"/><path d="m275.565 413.348c-75.972 0-137.783-61.794-137.783-137.783s61.81-137.783 137.783-137.783 137.783 61.794 137.783 137.783-61.81 137.783-137.783 137.783zm0-241.12c-56.983 0-103.337 46.354-103.337 103.337s46.353 103.337 103.337 103.337 103.337-46.354 103.337-103.337-46.353-103.337-103.337-103.337z"/></svg>