<svg width="670" height="670" viewBox="0 0 670 670" fill="none" xmlns="http://www.w3.org/2000/svg">
<path d="M125.096 432.671L229.362 384.051C231.867 382.895 234.145 381.309 236.049 379.398L302.642 291.765C308.541 285.27 316.508 280.536 325.199 278.357L316.111 258.716C314.652 255.587 313.134 252.125 311.528 248.464C304.192 231.754 294.153 208.867 280.487 199.837C264.984 189.601 247.135 199.781 240.189 204.628C225.259 215.037 217.188 232.024 209.384 248.443C207.116 253.202 204.875 257.909 202.507 262.431C194.198 278.299 183.226 287.74 170.002 290.493C162.597 292.162 155.15 290.94 149.568 287.147C141.165 280.061 136.559 269.957 136.722 258.945C136.4 241.01 139.167 222.792 144.919 204.926C155.361 170.297 179.466 138.848 212.474 116.793C219.574 112.18 227.013 108.053 234.713 104.454L286.64 80.2399C300.129 72.5915 315.739 69.5682 330.242 71.794C333.317 72.4706 336.248 73.2923 339.135 74.1082C345.263 76.4347 352.106 77.3278 359.102 76.7137C369.542 73.6593 379.249 68.2818 387.266 61.1171C392.634 42.6659 410.217 27.9325 430.869 24.5786C451.521 21.2248 470.576 30.011 478.128 46.3673L499.354 91.8885C507.744 109.836 500.152 132.247 481.165 145.58C462.178 158.909 437.007 159.5 420.874 146.991C414.106 150.473 408.509 155.714 404.933 161.925C396.504 175.059 394.373 190.145 399.085 203.302C405.601 217.274 423.131 254.868 434.382 279.214L461.253 266.684C476.134 259.676 493.158 261.281 503.904 270.697C514.651 280.116 516.851 295.357 509.411 308.885C519.904 310.918 528.299 317.127 532.382 325.883C536.466 334.64 535.826 345.062 530.638 354.407C541.131 356.439 549.527 362.651 553.609 371.405C557.693 380.161 557.053 390.583 551.865 399.928C567.011 402.924 577.272 414.406 577.579 428.694C577.884 442.978 568.171 457.05 553.237 463.945L539.078 470.548C541.356 473.509 543.545 476.25 545.383 478.518C551.198 484.877 553.093 493.674 550.526 502.385C547.634 510.767 540.71 517.941 531.796 521.793L464.904 552.891C456.227 557.251 446.283 557.95 437.998 554.789C429.676 551.233 424.158 544.168 423.054 535.664C422.389 532.217 421.568 528.839 420.829 525.43C420.051 525.75 419.284 526.125 418.502 526.434C392.334 536.345 364.489 539.627 338.232 535.901L280.161 528.564C277.198 528.673 274.225 529.398 271.461 530.682L188.779 569.238C178.905 573.833 167.744 570.771 163.826 562.402L114.296 456.183C110.401 447.798 115.231 437.284 125.096 432.671V432.671ZM465.284 135.49C480.077 128.575 487.324 112.797 481.481 100.223L460.254 54.7018C454.393 42.1315 437.637 37.5389 422.829 44.4439C408.017 51.3508 400.764 67.1388 406.626 79.7091L427.853 125.23C433.729 137.789 450.474 142.379 465.284 135.49ZM388.443 154.948C393.5 146.399 401.005 139.035 410.069 133.712L409.979 133.565L388.753 88.0435C387.958 86.1873 387.323 84.261 386.856 82.2821C378.71 87.8347 369.477 91.7745 359.878 93.7876C349.943 94.8865 340.165 93.8233 331.373 90.6928C328.824 89.9727 326.245 89.241 323.484 88.6323C313.429 87.5609 302.818 89.9771 293.715 95.4124L241.788 119.626C235.071 122.771 228.579 126.375 222.383 130.399C193.499 149.774 172.44 177.361 163.359 207.711C158.163 223.838 155.661 240.278 155.944 256.468C155.661 262.692 157.919 268.512 162.288 272.833C163.831 273.893 165.922 274.195 167.963 273.643C174.354 272.318 180.02 266.778 185.29 256.72C187.549 252.409 189.677 247.926 191.834 243.386C200.361 225.456 210.018 205.138 229.659 191.44C248.532 176.518 274.778 174.029 293.065 185.435C310.444 196.912 321.031 221.039 329.534 240.424C331.095 243.978 332.568 247.345 333.983 250.378L345.62 275.528L395.967 270.016C400.194 269.579 404.402 269.642 408.474 270.197C398.093 247.849 386.294 222.546 381.208 211.639C374.313 193.747 376.959 173.01 388.443 154.948V154.948ZM493.278 288.699C489.362 280.324 478.198 277.263 468.328 281.857L441.516 294.36L455.668 324.708L482.48 312.206C492.343 307.598 497.175 297.078 493.278 288.699V288.699ZM514.505 334.22C510.589 325.845 499.426 322.788 489.555 327.378L462.743 339.881L473.19 362.285C474.412 365.025 475.047 368.005 475.068 371.081L503.707 357.727C513.57 353.119 518.402 342.599 514.505 334.22ZM535.732 379.741C531.818 371.369 520.653 368.309 510.783 372.903L448.22 402.077C438.346 406.681 433.511 417.207 437.418 425.585C441.327 433.968 452.498 437.03 462.372 432.425L524.935 403.252C534.796 398.64 539.631 388.124 535.732 379.741ZM556.96 425.266C553.045 416.891 541.88 413.83 532.01 418.424L469.447 447.598C459.573 452.202 454.738 462.728 458.646 471.11C462.554 479.489 473.724 482.551 483.599 477.946L546.162 448.773C556.025 444.165 560.857 433.645 556.96 425.266ZM447.603 538.833C450.829 539.865 454.587 539.453 457.829 537.718L524.715 506.619C528.141 505.279 530.878 502.645 532.114 499.497C532.975 495.936 532.001 492.423 529.482 489.965C526.982 486.884 523.965 483.097 520.905 479.022L439.067 517.184C440.083 521.696 441.133 526.163 442.036 530.836C442.322 534.284 444.374 537.23 447.603 538.833V538.833ZM181.703 554.065L264.386 515.51C270.302 512.755 276.705 511.283 283.027 511.232C283.486 511.229 283.938 511.254 284.386 511.312L343.195 518.743C365.92 522.018 390.035 519.229 412.71 510.702C415.512 509.597 418.295 508.398 421.036 507.12L452.823 492.297C438.204 483.927 433.845 466.422 442.512 450.92C431.501 448.777 422.831 442.043 418.989 432.653C415.146 423.26 416.553 412.248 422.806 402.764C404.365 400.749 389.198 390.777 381.939 375.905C375.174 401.297 358.851 434.512 319.556 452.836C314.619 455.138 309.033 453.607 307.079 449.416C305.126 445.228 307.544 439.965 312.481 437.663C367.981 411.783 367.489 344.776 367.478 344.102C367.396 339.962 370.651 335.985 375.21 334.663C379.767 333.337 384.319 335.041 386.03 338.709L396.643 361.47C406.718 383.076 424.201 390.292 448.619 382.916C451.292 382.112 453.573 380.314 454.839 378.012C456.198 375.595 456.371 372.892 455.312 370.621L424.155 303.805C424.107 303.711 424.006 303.659 423.96 303.56L422.269 299.9C417.799 290.924 407.407 285.926 395.893 287.211L338.991 293.437L338.735 293.462L331.345 294.273C326.146 294.797 321.146 297.206 317.514 300.938L250.927 388.563C246.942 392.983 241.984 396.632 236.439 399.227L132.173 447.847L181.703 554.065Z" fill="white"/>
</svg>
