<svg width="983" height="835" viewBox="0 0 983 835" fill="none" xmlns="http://www.w3.org/2000/svg">
<g filter="url(#filter0_d)">
<path d="M99.7522 642.485L184.117 602.549C186.144 601.6 187.99 600.302 189.535 598.743L243.684 527.341C248.475 522.045 254.925 518.167 261.949 516.358L254.708 500.469C253.545 497.939 252.337 495.138 251.058 492.176C245.216 478.656 237.223 460.14 226.239 452.88C213.776 444.651 199.326 452.994 193.698 456.958C181.601 465.474 175.008 479.291 168.634 492.646C166.781 496.517 164.951 500.346 163.019 504.026C156.239 516.937 147.341 524.647 136.657 526.943C130.674 528.333 124.671 527.377 120.184 524.327C113.436 518.619 109.768 510.445 109.95 501.512C109.775 486.966 112.094 472.175 116.819 457.656C125.409 429.516 145.008 403.891 171.746 385.844C177.498 382.068 183.52 378.685 189.75 375.729L231.766 355.84C242.687 349.571 255.298 347.044 266.99 348.78C269.469 349.315 271.829 349.967 274.155 350.615C279.09 352.473 284.607 353.165 290.255 352.633C298.694 350.106 306.552 345.697 313.055 339.847C317.473 324.855 331.731 312.82 348.412 310.001C365.092 307.182 380.428 314.218 386.444 327.449L403.359 364.272C410.044 378.79 403.812 397.006 388.429 407.911C373.044 418.814 352.73 419.413 339.77 409.343C334.293 412.2 329.752 416.478 326.837 421.533C319.974 432.228 318.183 444.474 321.924 455.124C327.115 466.427 341.084 496.837 350.049 516.532L371.791 506.24C383.832 500.484 397.561 501.705 406.188 509.291C414.817 516.88 416.52 529.232 410.453 540.241C418.91 541.84 425.655 546.836 428.909 553.919C432.163 561.003 431.598 569.46 427.367 577.064C435.825 578.663 442.571 583.662 445.824 590.743C449.078 597.826 448.512 606.283 444.282 613.887C456.49 616.246 464.715 625.51 464.896 637.098C465.075 648.683 457.171 660.145 445.088 665.809L433.632 671.232C435.455 673.623 437.209 675.836 438.681 677.667C443.344 682.797 444.832 689.924 442.72 697.002C440.346 703.815 434.725 709.668 427.514 712.834L373.39 738.379C366.368 741.957 358.34 742.571 351.67 740.047C344.971 737.202 340.552 731.498 339.701 724.605C339.18 721.813 338.534 719.076 337.954 716.315C337.325 716.578 336.704 716.885 336.071 717.14C314.909 725.304 292.424 728.099 271.254 725.202L224.428 719.529C222.037 719.631 219.634 720.233 217.398 721.288L150.497 752.957C142.508 756.732 133.516 754.302 130.394 747.531L90.926 661.609C87.8227 654.826 91.7696 646.274 99.7522 642.485V642.485ZM375.661 399.802C387.63 394.122 393.553 381.29 388.897 371.118L371.982 334.295C367.311 324.127 353.812 320.481 341.83 326.153C329.846 331.826 323.919 344.667 328.59 354.836L345.504 391.659C350.187 401.818 363.678 405.461 375.661 399.802ZM313.563 415.952C317.685 408.994 323.775 402.985 331.114 398.624L331.042 398.505L314.128 361.682C313.495 360.18 312.992 358.62 312.625 357.017C306.025 361.56 298.556 364.8 290.801 366.479C282.779 367.418 274.894 366.602 267.814 364.105C265.76 363.533 263.682 362.952 261.458 362.471C253.349 361.65 244.775 363.661 237.404 368.113L195.388 388.002C189.953 390.585 184.697 393.539 179.679 396.833C156.28 412.687 139.157 435.165 131.686 459.826C127.418 472.933 125.321 486.28 125.473 499.411C125.216 504.461 127.011 509.171 130.516 512.655C131.756 513.508 133.441 513.743 135.091 513.285C140.254 512.18 144.853 507.659 149.153 499.476C150.996 495.968 152.734 492.321 154.496 488.629C161.461 474.044 169.35 457.517 185.263 446.312C200.563 434.117 221.753 431.973 236.456 441.138C250.425 450.364 258.855 469.884 265.625 485.568C266.868 488.443 268.041 491.167 269.168 493.621L278.44 513.966L319.093 509.254C322.507 508.879 325.901 508.91 329.185 509.342C320.913 491.263 311.511 470.795 307.458 461.972C301.979 447.492 304.211 430.658 313.563 415.952V415.952ZM397.529 523.944C394.409 517.169 385.414 514.74 377.428 518.513L355.734 528.783L367.011 553.333L388.705 543.063C396.686 539.278 400.635 530.722 397.529 523.944V523.944ZM414.444 560.767C411.324 553.992 402.33 551.566 394.343 555.337L372.648 565.606L380.973 583.729C381.946 585.946 382.445 588.36 382.448 590.855L405.62 579.886C413.6 576.102 417.549 567.545 414.444 560.767ZM431.358 597.59C428.24 590.818 419.245 588.389 411.259 592.163L360.637 616.125C352.647 619.908 348.696 628.468 351.81 635.246C354.924 642.027 363.924 644.457 371.914 640.675L422.536 616.712C430.515 612.925 434.465 604.371 431.358 597.59ZM448.274 634.416C445.154 627.641 436.159 625.212 428.173 628.986L377.552 652.949C369.562 656.731 365.611 665.292 368.726 672.072C371.839 678.85 380.839 681.28 388.829 677.498L439.45 653.535C447.431 649.751 451.38 641.194 448.274 634.416ZM359.495 727.058C362.094 727.88 365.128 727.528 367.752 726.105L421.871 700.56C424.643 699.456 426.863 697.306 427.876 694.748C428.588 691.855 427.817 689.01 425.797 687.028C423.794 684.541 421.377 681.484 418.927 678.193L352.71 709.538C353.508 713.194 354.334 716.812 355.041 720.599C355.255 723.394 356.898 725.774 359.495 727.058V727.058ZM144.86 740.684L211.76 709.015C216.548 706.752 221.721 705.527 226.823 705.456C227.193 705.451 227.558 705.47 227.919 705.514L275.339 711.261C293.661 713.809 313.134 711.432 331.471 704.406C333.738 703.497 335.989 702.511 338.207 701.461L363.927 689.286C352.17 682.566 348.734 668.388 355.801 655.772C346.926 654.086 339.961 648.665 336.906 641.067C333.848 633.466 335.036 624.527 340.126 616.804C325.255 615.258 313.063 607.242 307.275 595.213C301.697 615.842 288.369 642.863 256.574 657.913C252.579 659.804 248.08 658.589 246.522 655.199C244.966 651.811 246.942 647.531 250.937 645.64C295.843 624.382 295.761 570.032 295.756 569.485C295.709 566.127 298.354 562.886 302.039 561.792C305.723 560.695 309.388 562.055 310.751 565.022L319.209 583.434C327.237 600.911 341.31 606.681 361.049 600.582C363.21 599.917 365.059 598.447 366.091 596.574C367.199 594.606 367.352 592.413 366.508 590.577L341.681 536.527C341.642 536.452 341.561 536.41 341.524 536.33L340.176 533.369C336.612 526.109 328.25 522.105 318.953 523.202L273.007 528.524L272.8 528.546L266.833 529.239C262.635 529.689 258.59 531.667 255.641 534.711L201.497 606.106C198.261 609.711 194.243 612.694 189.756 614.825L105.391 654.761L144.86 740.684Z" fill="white"/>
<path d="M246.213 256H209.777V73.9492H246.213V146.82H318.957V73.9492H355.393V256H318.957V183.256H246.213V256ZM515.227 256H506.848L493.391 237.338C490.09 240.3 486.578 243.093 482.854 245.717C479.214 248.256 475.363 250.499 471.301 252.445C467.238 254.307 463.049 255.788 458.732 256.889C454.501 257.989 450.184 258.539 445.783 258.539C436.219 258.539 427.206 256.931 418.742 253.715C410.363 250.499 403 245.844 396.652 239.75C390.389 233.572 385.438 226.039 381.799 217.152C378.16 208.266 376.34 198.152 376.34 186.811C376.34 176.231 378.16 166.54 381.799 157.738C385.438 148.852 390.389 141.234 396.652 134.887C403 128.539 410.363 123.63 418.742 120.16C427.206 116.605 436.219 114.828 445.783 114.828C450.184 114.828 454.543 115.378 458.859 116.479C463.176 117.579 467.365 119.102 471.428 121.049C475.49 122.995 479.341 125.281 482.981 127.904C486.704 130.528 490.175 133.363 493.391 136.41L506.848 120.287H515.227V256ZM480.315 186.811C480.315 182.071 479.384 177.501 477.522 173.1C475.744 168.614 473.29 164.678 470.158 161.293C467.027 157.823 463.345 155.072 459.113 153.041C454.966 150.925 450.523 149.867 445.783 149.867C441.044 149.867 436.558 150.671 432.326 152.279C428.179 153.887 424.54 156.257 421.408 159.389C418.361 162.52 415.949 166.413 414.172 171.068C412.395 175.639 411.506 180.886 411.506 186.811C411.506 192.735 412.395 198.025 414.172 202.68C415.949 207.25 418.361 211.101 421.408 214.232C424.54 217.364 428.179 219.734 432.326 221.342C436.558 222.95 441.044 223.754 445.783 223.754C450.523 223.754 454.966 222.738 459.113 220.707C463.345 218.591 467.027 215.84 470.158 212.455C473.29 208.985 475.744 205.049 477.522 200.648C479.384 196.163 480.315 191.55 480.315 186.811ZM576.418 256H541.76V120.033H550.139L561.565 133.236C567.15 128.158 573.456 124.265 580.481 121.557C587.59 118.764 594.996 117.367 602.697 117.367C610.992 117.367 618.82 118.975 626.184 122.191C633.547 125.323 639.979 129.682 645.481 135.268C650.982 140.769 655.298 147.243 658.43 154.691C661.646 162.055 663.254 169.926 663.254 178.305V256H628.596V178.305C628.596 174.75 627.919 171.407 626.565 168.275C625.21 165.059 623.348 162.266 620.979 159.896C618.609 157.527 615.858 155.665 612.727 154.311C609.595 152.956 606.252 152.279 602.697 152.279C599.058 152.279 595.63 152.956 592.414 154.311C589.198 155.665 586.405 157.527 584.035 159.896C581.665 162.266 579.803 165.059 578.449 168.275C577.095 171.407 576.418 174.75 576.418 178.305V256ZM819.406 256H811.027L797.57 237.338C794.27 240.3 790.757 243.093 787.033 245.717C783.394 248.256 779.543 250.499 775.481 252.445C771.418 254.307 767.229 255.788 762.912 256.889C758.68 257.989 754.364 258.539 749.963 258.539C740.399 258.539 731.385 256.762 722.922 253.207C714.543 249.568 707.18 244.574 700.832 238.227C694.569 231.794 689.618 224.219 685.979 215.502C682.339 206.7 680.52 197.136 680.52 186.811C680.52 176.57 682.339 167.048 685.979 158.246C689.618 149.444 694.569 141.827 700.832 135.395C707.18 128.962 714.543 123.926 722.922 120.287C731.385 116.648 740.399 114.828 749.963 114.828C753.01 114.828 756.141 115.082 759.357 115.59C762.658 116.098 765.832 116.944 768.879 118.129C772.01 119.229 774.93 120.71 777.639 122.572C780.347 124.434 782.632 126.719 784.494 129.428V65.9512H819.406V256ZM784.494 186.811C784.494 182.071 783.563 177.501 781.701 173.1C779.924 168.614 777.469 164.678 774.338 161.293C771.206 157.823 767.525 155.072 763.293 153.041C759.146 150.925 754.703 149.867 749.963 149.867C745.223 149.867 740.738 150.714 736.506 152.406C732.359 154.099 728.719 156.553 725.588 159.77C722.541 162.901 720.129 166.752 718.352 171.322C716.574 175.893 715.686 181.055 715.686 186.811C715.686 191.804 716.574 196.544 718.352 201.029C720.129 205.515 722.541 209.451 725.588 212.836C728.719 216.221 732.359 218.887 736.506 220.834C740.738 222.781 745.223 223.754 749.963 223.754C754.703 223.754 759.146 222.738 763.293 220.707C767.525 218.591 771.206 215.84 774.338 212.455C777.469 208.985 779.924 205.049 781.701 200.648C783.563 196.163 784.494 191.55 784.494 186.811Z" fill="white"/>
<path d="M658.486 495.503H622.177V365.503C622.177 362.964 621.669 360.594 620.654 358.394C619.723 356.193 618.411 354.289 616.718 352.681C615.11 350.988 613.206 349.676 611.005 348.745C608.805 347.814 606.435 347.349 603.896 347.349C601.357 347.349 598.987 347.814 596.787 348.745C594.586 349.676 592.64 350.988 590.947 352.681C589.339 354.289 588.069 356.193 587.138 358.394C586.207 360.594 585.742 362.964 585.742 365.503V495.503H549.306V365.503C549.306 362.964 548.841 360.594 547.91 358.394C546.979 356.193 545.667 354.289 543.974 352.681C542.366 350.988 540.462 349.676 538.261 348.745C536.061 347.814 533.691 347.349 531.152 347.349C528.613 347.349 526.243 347.814 524.043 348.745C521.842 349.676 519.895 350.988 518.203 352.681C516.595 354.289 515.325 356.193 514.394 358.394C513.463 360.594 512.998 362.964 512.998 365.503V495.503H476.562V365.503C476.562 357.97 477.959 350.903 480.752 344.302C483.629 337.616 487.522 331.818 492.431 326.909C497.425 321.916 503.222 318.023 509.824 315.23C516.51 312.352 523.619 310.913 531.152 310.913C537.923 310.913 544.44 312.14 550.703 314.595C556.966 316.965 562.594 320.435 567.587 325.005C572.581 320.435 578.167 316.965 584.345 314.595C590.608 312.14 597.125 310.913 603.896 310.913C611.429 310.913 618.496 312.352 625.097 315.23C631.783 318.023 637.581 321.916 642.49 326.909C647.483 331.818 651.377 337.616 654.169 344.302C657.047 350.903 658.486 357.97 658.486 365.503V495.503ZM817.558 495.503H809.179L795.722 476.841C792.421 479.803 788.909 482.596 785.185 485.22C781.546 487.759 777.695 490.002 773.632 491.948C769.57 493.81 765.38 495.291 761.064 496.392C756.832 497.492 752.516 498.042 748.115 498.042C738.551 498.042 729.537 496.434 721.074 493.218C712.695 490.002 705.332 485.347 698.984 479.253C692.721 473.075 687.77 465.542 684.13 456.655C680.491 447.769 678.671 437.655 678.671 426.314C678.671 415.734 680.491 406.043 684.13 397.241C687.77 388.355 692.721 380.737 698.984 374.39C705.332 368.042 712.695 363.133 721.074 359.663C729.537 356.108 738.551 354.331 748.115 354.331C752.516 354.331 756.875 354.881 761.191 355.982C765.507 357.082 769.697 358.605 773.759 360.552C777.822 362.498 781.673 364.784 785.312 367.407C789.036 370.031 792.506 372.866 795.722 375.913L809.179 359.79H817.558V495.503ZM782.646 426.314C782.646 421.574 781.715 417.004 779.853 412.603C778.076 408.117 775.621 404.181 772.49 400.796C769.358 397.326 765.677 394.575 761.445 392.544C757.298 390.428 752.854 389.37 748.115 389.37C743.375 389.37 738.89 390.174 734.658 391.782C730.511 393.39 726.871 395.76 723.74 398.892C720.693 402.023 718.281 405.916 716.503 410.571C714.726 415.142 713.837 420.389 713.837 426.314C713.837 432.238 714.726 437.528 716.503 442.183C718.281 446.753 720.693 450.604 723.74 453.735C726.871 456.867 730.511 459.237 734.658 460.845C738.89 462.453 743.375 463.257 748.115 463.257C752.854 463.257 757.298 462.241 761.445 460.21C765.677 458.094 769.358 455.343 772.49 451.958C775.621 448.488 778.076 444.552 779.853 440.151C781.715 435.666 782.646 431.053 782.646 426.314ZM878.75 495.503H844.091V359.536H852.47L863.896 372.739C869.482 367.661 875.787 363.768 882.812 361.06C889.921 358.267 897.327 356.87 905.029 356.87C913.323 356.87 921.152 358.478 928.515 361.694C935.878 364.826 942.311 369.185 947.812 374.771C953.313 380.272 957.63 386.746 960.761 394.194C963.977 401.558 965.586 409.429 965.586 417.808V495.503H930.927V417.808C930.927 414.253 930.25 410.91 928.896 407.778C927.542 404.562 925.68 401.769 923.31 399.399C920.94 397.03 918.19 395.168 915.058 393.814C911.927 392.459 908.584 391.782 905.029 391.782C901.39 391.782 897.962 392.459 894.746 393.814C891.53 395.168 888.737 397.03 886.367 399.399C883.997 401.769 882.135 404.562 880.781 407.778C879.427 410.91 878.75 414.253 878.75 417.808V495.503Z" fill="white"/>
<path d="M881.377 307.797V272.885L900.673 273.139C904.059 273.139 907.317 272.589 910.449 271.488C913.58 270.388 916.458 268.865 919.082 266.918C921.79 264.971 924.16 262.644 926.191 259.936C928.222 257.312 929.873 254.434 931.142 251.303C927.334 252.911 923.44 254.519 919.463 256.127C915.569 257.735 911.634 258.539 907.656 258.539C899.277 258.539 891.406 257.058 884.043 254.096C876.679 251.133 870.205 246.944 864.619 241.527C859.117 236.026 854.759 229.382 851.543 221.596C848.411 213.725 846.845 204.923 846.845 195.189V120.033H881.377V195.189C881.377 200.014 882.054 204.245 883.408 207.885C884.847 211.439 886.751 214.444 889.121 216.898C891.491 219.268 894.241 221.046 897.373 222.23C900.589 223.415 904.017 224.008 907.656 224.008C911.211 224.008 914.554 223.204 917.685 221.596C920.901 219.903 923.694 217.702 926.064 214.994C928.434 212.286 930.296 209.239 931.65 205.854C933.004 202.383 933.681 198.829 933.681 195.189V120.033H968.593V238.861C968.509 248.425 966.647 257.396 963.007 265.775C959.368 274.154 954.375 281.475 948.027 287.738C941.764 294.001 934.443 298.952 926.064 302.592C917.685 306.231 908.714 308.051 899.15 308.051L881.377 307.797Z" fill="white"/>
</g>
<defs>
<filter id="filter0_d" x="85.8669" y="65.9512" width="886.727" height="696.785" filterUnits="userSpaceOnUse" color-interpolation-filters="sRGB">
<feFlood flood-opacity="0" result="BackgroundImageFix"/>
<feColorMatrix in="SourceAlpha" type="matrix" values="0 0 0 0 0 0 0 0 0 0 0 0 0 0 0 0 0 0 127 0"/>
<feOffset dy="4"/>
<feGaussianBlur stdDeviation="2"/>
<feColorMatrix type="matrix" values="0 0 0 0 0 0 0 0 0 0 0 0 0 0 0 0 0 0 0.25 0"/>
<feBlend mode="normal" in2="BackgroundImageFix" result="effect1_dropShadow"/>
<feBlend mode="normal" in="SourceGraphic" in2="effect1_dropShadow" result="shape"/>
</filter>
</defs>
</svg>
