<svg width="1398" height="343" viewBox="0 0 1398 343" fill="none" xmlns="http://www.w3.org/2000/svg">
<path d="M45.1172 250H14.2871V95.957H45.1172V157.617H106.67V95.957H137.5V250H106.67V188.447H45.1172V250ZM272.744 250H265.654L254.268 234.209C251.475 236.715 248.503 239.079 245.352 241.299C242.272 243.447 239.014 245.345 235.576 246.992C232.139 248.568 228.594 249.821 224.941 250.752C221.361 251.683 217.708 252.148 213.984 252.148C205.892 252.148 198.265 250.788 191.104 248.066C184.014 245.345 177.783 241.406 172.412 236.25C167.113 231.022 162.923 224.648 159.844 217.129C156.764 209.609 155.225 201.051 155.225 191.455C155.225 182.503 156.764 174.303 159.844 166.855C162.923 159.336 167.113 152.891 172.412 147.52C177.783 142.148 184.014 137.995 191.104 135.059C198.265 132.051 205.892 130.547 213.984 130.547C217.708 130.547 221.396 131.012 225.049 131.943C228.701 132.874 232.246 134.163 235.684 135.811C239.121 137.458 242.38 139.391 245.459 141.611C248.61 143.831 251.546 146.23 254.268 148.809L265.654 135.166H272.744V250ZM243.203 191.455C243.203 187.445 242.415 183.577 240.84 179.854C239.336 176.058 237.259 172.728 234.609 169.863C231.96 166.927 228.844 164.6 225.264 162.881C221.755 161.09 217.995 160.195 213.984 160.195C209.974 160.195 206.178 160.876 202.598 162.236C199.089 163.597 196.009 165.602 193.359 168.252C190.781 170.902 188.74 174.196 187.236 178.135C185.732 182.002 184.98 186.442 184.98 191.455C184.98 196.468 185.732 200.944 187.236 204.883C188.74 208.75 190.781 212.008 193.359 214.658C196.009 217.308 199.089 219.313 202.598 220.674C206.178 222.035 209.974 222.715 213.984 222.715C217.995 222.715 221.755 221.855 225.264 220.137C228.844 218.346 231.96 216.019 234.609 213.154C237.259 210.218 239.336 206.888 240.84 203.164C242.415 199.368 243.203 195.465 243.203 191.455ZM324.521 250H295.195V134.951H302.285L311.953 146.123C316.68 141.826 322.015 138.532 327.959 136.24C333.975 133.877 340.241 132.695 346.758 132.695C353.776 132.695 360.4 134.056 366.631 136.777C372.861 139.427 378.304 143.115 382.959 147.842C387.614 152.497 391.266 157.975 393.916 164.277C396.637 170.508 397.998 177.168 397.998 184.258V250H368.672V184.258C368.672 181.25 368.099 178.421 366.953 175.771C365.807 173.05 364.232 170.687 362.227 168.682C360.221 166.676 357.894 165.101 355.244 163.955C352.594 162.809 349.766 162.236 346.758 162.236C343.678 162.236 340.778 162.809 338.057 163.955C335.335 165.101 332.972 166.676 330.967 168.682C328.962 170.687 327.386 173.05 326.24 175.771C325.094 178.421 324.521 181.25 324.521 184.258V250ZM530.127 250H523.037L511.65 234.209C508.857 236.715 505.885 239.079 502.734 241.299C499.655 243.447 496.396 245.345 492.959 246.992C489.521 248.568 485.977 249.821 482.324 250.752C478.743 251.683 475.091 252.148 471.367 252.148C463.275 252.148 455.648 250.645 448.486 247.637C441.396 244.557 435.166 240.332 429.795 234.961C424.495 229.518 420.306 223.109 417.227 215.732C414.147 208.285 412.607 200.192 412.607 191.455C412.607 182.79 414.147 174.733 417.227 167.285C420.306 159.837 424.495 153.392 429.795 147.949C435.166 142.507 441.396 138.245 448.486 135.166C455.648 132.087 463.275 130.547 471.367 130.547C473.945 130.547 476.595 130.762 479.316 131.191C482.109 131.621 484.795 132.337 487.373 133.34C490.023 134.271 492.493 135.524 494.785 137.1C497.077 138.675 499.01 140.609 500.586 142.9V89.1895H530.127V250ZM500.586 191.455C500.586 187.445 499.798 183.577 498.223 179.854C496.719 176.058 494.642 172.728 491.992 169.863C489.342 166.927 486.227 164.6 482.646 162.881C479.137 161.09 475.378 160.195 471.367 160.195C467.357 160.195 463.561 160.911 459.98 162.344C456.471 163.776 453.392 165.853 450.742 168.574C448.164 171.224 446.123 174.482 444.619 178.35C443.115 182.217 442.363 186.585 442.363 191.455C442.363 195.68 443.115 199.691 444.619 203.486C446.123 207.282 448.164 210.612 450.742 213.477C453.392 216.341 456.471 218.597 459.98 220.244C463.561 221.891 467.357 222.715 471.367 222.715C475.378 222.715 479.137 221.855 482.646 220.137C486.227 218.346 489.342 216.019 491.992 213.154C494.642 210.218 496.719 206.888 498.223 203.164C499.798 199.368 500.586 195.465 500.586 191.455ZM580.293 293.828V264.287L596.621 264.502C599.486 264.502 602.243 264.036 604.893 263.105C607.542 262.174 609.977 260.885 612.197 259.238C614.489 257.591 616.494 255.622 618.213 253.33C619.932 251.11 621.328 248.675 622.402 246.025C619.18 247.386 615.885 248.747 612.52 250.107C609.225 251.468 605.895 252.148 602.529 252.148C595.439 252.148 588.779 250.895 582.549 248.389C576.318 245.882 570.84 242.337 566.113 237.754C561.458 233.099 557.77 227.477 555.049 220.889C552.399 214.229 551.074 206.781 551.074 198.545V134.951H580.293V198.545C580.293 202.627 580.866 206.208 582.012 209.287C583.229 212.295 584.84 214.837 586.846 216.914C588.851 218.919 591.178 220.423 593.828 221.426C596.549 222.428 599.45 222.93 602.529 222.93C605.537 222.93 608.366 222.249 611.016 220.889C613.737 219.456 616.1 217.594 618.105 215.303C620.111 213.011 621.686 210.433 622.832 207.568C623.978 204.632 624.551 201.624 624.551 198.545V134.951H654.092V235.498C654.02 243.59 652.445 251.182 649.365 258.271C646.286 265.361 642.061 271.556 636.689 276.855C631.39 282.155 625.195 286.344 618.105 289.424C611.016 292.503 603.424 294.043 595.332 294.043L580.293 293.828ZM832.52 250H801.797V140C801.797 137.852 801.367 135.846 800.508 133.984C799.72 132.122 798.61 130.511 797.178 129.15C795.817 127.718 794.206 126.608 792.344 125.82C790.482 125.033 788.477 124.639 786.328 124.639C784.18 124.639 782.174 125.033 780.312 125.82C778.451 126.608 776.803 127.718 775.371 129.15C774.01 130.511 772.936 132.122 772.148 133.984C771.361 135.846 770.967 137.852 770.967 140V250H740.137V140C740.137 137.852 739.743 135.846 738.955 133.984C738.167 132.122 737.057 130.511 735.625 129.15C734.264 127.718 732.653 126.608 730.791 125.82C728.929 125.033 726.924 124.639 724.775 124.639C722.627 124.639 720.622 125.033 718.76 125.82C716.898 126.608 715.251 127.718 713.818 129.15C712.458 130.511 711.383 132.122 710.596 133.984C709.808 135.846 709.414 137.852 709.414 140V250H678.584V140C678.584 133.626 679.766 127.646 682.129 122.061C684.564 116.403 687.858 111.497 692.012 107.344C696.237 103.118 701.143 99.8242 706.729 97.4609C712.386 95.026 718.402 93.8086 724.775 93.8086C730.505 93.8086 736.019 94.847 741.318 96.9238C746.618 98.929 751.38 101.865 755.605 105.732C759.831 101.865 764.557 98.929 769.785 96.9238C775.085 94.847 780.599 93.8086 786.328 93.8086C792.702 93.8086 798.682 95.026 804.268 97.4609C809.925 99.8242 814.831 103.118 818.984 107.344C823.21 111.497 826.504 116.403 828.867 122.061C831.302 127.646 832.52 133.626 832.52 140V250ZM967.119 250H960.029L948.643 234.209C945.85 236.715 942.878 239.079 939.727 241.299C936.647 243.447 933.389 245.345 929.951 246.992C926.514 248.568 922.969 249.821 919.316 250.752C915.736 251.683 912.083 252.148 908.359 252.148C900.267 252.148 892.64 250.788 885.479 248.066C878.389 245.345 872.158 241.406 866.787 236.25C861.488 231.022 857.298 224.648 854.219 217.129C851.139 209.609 849.6 201.051 849.6 191.455C849.6 182.503 851.139 174.303 854.219 166.855C857.298 159.336 861.488 152.891 866.787 147.52C872.158 142.148 878.389 137.995 885.479 135.059C892.64 132.051 900.267 130.547 908.359 130.547C912.083 130.547 915.771 131.012 919.424 131.943C923.076 132.874 926.621 134.163 930.059 135.811C933.496 137.458 936.755 139.391 939.834 141.611C942.985 143.831 945.921 146.23 948.643 148.809L960.029 135.166H967.119V250ZM937.578 191.455C937.578 187.445 936.79 183.577 935.215 179.854C933.711 176.058 931.634 172.728 928.984 169.863C926.335 166.927 923.219 164.6 919.639 162.881C916.13 161.09 912.37 160.195 908.359 160.195C904.349 160.195 900.553 160.876 896.973 162.236C893.464 163.597 890.384 165.602 887.734 168.252C885.156 170.902 883.115 174.196 881.611 178.135C880.107 182.002 879.355 186.442 879.355 191.455C879.355 196.468 880.107 200.944 881.611 204.883C883.115 208.75 885.156 212.008 887.734 214.658C890.384 217.308 893.464 219.313 896.973 220.674C900.553 222.035 904.349 222.715 908.359 222.715C912.37 222.715 916.13 221.855 919.639 220.137C923.219 218.346 926.335 216.019 928.984 213.154C931.634 210.218 933.711 206.888 935.215 203.164C936.79 199.368 937.578 195.465 937.578 191.455ZM1018.9 250H989.57V134.951H996.66L1006.33 146.123C1011.05 141.826 1016.39 138.532 1022.33 136.24C1028.35 133.877 1034.62 132.695 1041.13 132.695C1048.15 132.695 1054.78 134.056 1061.01 136.777C1067.24 139.427 1072.68 143.115 1077.33 147.842C1081.99 152.497 1085.64 157.975 1088.29 164.277C1091.01 170.508 1092.37 177.168 1092.37 184.258V250H1063.05V184.258C1063.05 181.25 1062.47 178.421 1061.33 175.771C1060.18 173.05 1058.61 170.687 1056.6 168.682C1054.6 166.676 1052.27 165.101 1049.62 163.955C1046.97 162.809 1044.14 162.236 1041.13 162.236C1038.05 162.236 1035.15 162.809 1032.43 163.955C1029.71 165.101 1027.35 166.676 1025.34 168.682C1023.34 170.687 1021.76 173.05 1020.62 175.771C1019.47 178.421 1018.9 181.25 1018.9 184.258V250Z" fill="white"/>
<path d="M1126.85 222.552L1180.39 197.209C1181.67 196.607 1182.84 195.786 1183.83 194.802L1218.32 149.785C1221.37 146.443 1225.47 143.987 1229.92 142.83L1225.38 132.871C1224.65 131.285 1223.9 129.529 1223.1 127.672C1219.44 119.197 1214.43 107.59 1207.5 103.063C1199.63 97.9316 1190.46 103.216 1186.88 105.724C1179.2 111.11 1174.98 119.809 1170.9 128.218C1169.72 130.655 1168.55 133.066 1167.32 135.383C1162.99 143.514 1157.33 148.385 1150.56 149.86C1146.76 150.751 1142.97 150.169 1140.13 148.266C1135.88 144.701 1133.58 139.578 1133.72 133.966C1133.65 124.829 1135.16 115.53 1138.2 106.395C1143.72 88.6926 1156.21 72.5363 1173.19 61.1183C1176.84 58.7287 1180.67 56.5854 1184.62 54.7095L1211.28 42.088C1218.22 38.1172 1226.21 36.4915 1233.61 37.5467C1235.18 37.8747 1236.67 38.2774 1238.14 38.6774C1241.26 39.8295 1244.75 40.2473 1248.33 39.8962C1253.68 38.2829 1258.67 35.4899 1262.8 31.7953C1265.64 22.3641 1274.71 14.7608 1285.28 12.9392C1295.85 11.1177 1305.54 15.4909 1309.31 23.7842L1319.91 46.8641C1324.1 55.9634 1320.1 67.4249 1310.33 74.3221C1300.55 81.2176 1287.69 81.6558 1279.51 75.3696C1276.04 77.1809 1273.15 79.882 1271.29 83.0664C1266.91 89.805 1265.74 97.5033 1268.08 104.182C1271.33 111.266 1280.09 130.327 1285.71 142.671L1299.5 136.14C1307.14 132.488 1315.83 133.213 1321.27 137.952C1326.71 142.693 1327.76 150.447 1323.88 157.381C1329.23 158.36 1333.49 161.478 1335.53 165.918C1337.57 170.357 1337.19 175.671 1334.48 180.461C1339.84 181.44 1344.09 184.559 1346.13 188.998C1348.17 193.437 1347.79 198.751 1345.09 203.541C1352.81 204.985 1357.99 210.78 1358.07 218.059C1358.15 225.336 1353.11 232.559 1345.44 236.154L1338.17 239.596C1339.32 241.092 1340.43 242.477 1341.35 243.623C1344.29 246.831 1345.21 251.303 1343.85 255.756C1342.33 260.043 1338.75 263.737 1334.18 265.748L1299.83 281.958C1295.37 284.227 1290.29 284.638 1286.07 283.072C1281.84 281.306 1279.06 277.736 1278.54 273.409C1278.22 271.656 1277.82 269.939 1277.46 268.206C1277.06 268.373 1276.67 268.568 1276.26 268.73C1262.84 273.923 1248.59 275.747 1235.2 273.992L1205.57 270.57C1204.05 270.641 1202.53 271.027 1201.11 271.697L1158.65 291.793C1153.58 294.189 1147.9 292.689 1145.94 288.446L1121.2 234.592C1119.26 230.34 1121.78 224.956 1126.85 222.552V222.552ZM1302.27 69.2671C1309.86 65.6628 1313.65 57.5839 1310.73 51.2084L1300.13 28.1285C1297.2 21.7552 1288.67 19.5063 1281.06 23.1055C1273.46 26.7057 1269.67 34.7902 1272.59 41.1635L1283.2 64.2434C1286.13 70.6108 1294.66 72.8581 1302.27 69.2671ZM1262.9 79.6009C1265.53 75.2172 1269.4 71.424 1274.06 68.6624L1274.02 68.5877L1263.42 45.5078C1263.02 44.5663 1262.71 43.5881 1262.48 42.5823C1258.29 45.4561 1253.55 47.514 1248.63 48.5921C1243.55 49.2062 1238.56 48.7178 1234.08 47.1705C1232.79 46.8175 1231.47 46.4587 1230.06 46.1636C1224.93 45.6724 1219.5 46.9615 1214.82 49.7807L1188.15 62.4022C1184.71 64.0413 1181.37 65.913 1178.18 67.9972C1163.32 78.0274 1152.41 92.1993 1147.61 107.714C1144.87 115.96 1143.5 124.35 1143.56 132.599C1143.38 135.772 1144.5 138.725 1146.71 140.903C1147.49 141.435 1148.56 141.577 1149.61 141.285C1152.88 140.575 1155.8 137.721 1158.55 132.567C1159.73 130.358 1160.84 128.062 1161.96 125.737C1166.42 116.554 1171.46 106.148 1181.57 99.0613C1191.29 91.3548 1204.72 89.9435 1214 95.6557C1222.82 101.409 1228.1 113.645 1232.34 123.477C1233.12 125.28 1233.85 126.987 1234.56 128.525L1240.37 141.277L1266.13 138.193C1268.29 137.948 1270.44 137.957 1272.52 138.218C1267.33 126.887 1261.44 114.058 1258.9 108.528C1255.47 99.4483 1256.93 88.8671 1262.9 79.6009V79.6009ZM1315.75 147.183C1313.79 142.937 1308.1 141.438 1303.04 143.833L1289.27 150.35L1296.34 165.737L1310.1 159.22C1315.17 156.818 1317.69 151.432 1315.75 147.183V147.183ZM1326.35 170.263C1324.39 166.017 1318.71 164.52 1313.64 166.913L1299.87 173.43L1305.09 184.789C1305.7 186.179 1306.01 187.693 1306 189.261L1320.71 182.3C1325.77 179.898 1328.3 174.511 1326.35 170.263ZM1336.95 193.343C1335 189.098 1329.31 187.6 1324.24 189.994L1292.12 205.201C1287.05 207.601 1284.52 212.991 1286.47 217.239C1288.42 221.489 1294.11 222.988 1299.18 220.588L1331.31 205.382C1336.37 202.978 1338.9 197.593 1336.95 193.343ZM1347.55 216.425C1345.6 212.178 1339.91 210.68 1334.84 213.074L1302.72 228.281C1297.65 230.681 1295.12 236.071 1297.07 240.321C1299.02 244.569 1304.72 246.068 1309.79 243.668L1341.91 228.462C1346.97 226.06 1349.5 220.673 1347.55 216.425ZM1291.07 274.889C1292.71 275.398 1294.63 275.168 1296.3 274.266L1330.64 258.054C1332.4 257.353 1333.81 255.996 1334.46 254.385C1334.92 252.566 1334.44 250.781 1333.17 249.542C1331.91 247.986 1330.38 246.073 1328.84 244.013L1286.82 263.905C1287.32 266.199 1287.83 268.469 1288.26 270.845C1288.39 272.6 1289.43 274.09 1291.07 274.889V274.889ZM1155.12 284.101L1197.57 264.004C1200.61 262.568 1203.89 261.783 1207.12 261.723C1207.36 261.718 1207.59 261.729 1207.82 261.756L1237.83 265.222C1249.42 266.767 1261.76 265.214 1273.39 260.745C1274.83 260.167 1276.25 259.541 1277.66 258.875L1293.98 251.149C1286.56 246.963 1284.43 238.067 1288.94 230.121C1283.32 229.089 1278.93 225.704 1277.02 220.941C1275.1 216.175 1275.88 210.556 1279.13 205.69C1269.72 204.764 1262.02 199.765 1258.39 192.227C1254.8 205.202 1246.28 222.216 1226.1 231.767C1223.57 232.967 1220.72 232.218 1219.74 230.093C1218.77 227.969 1220.03 225.274 1222.57 224.074C1251.07 210.584 1251.17 176.443 1251.17 176.1C1251.15 173.991 1252.84 171.947 1255.17 171.248C1257.51 170.548 1259.83 171.391 1260.68 173.251L1265.98 184.791C1271.01 195.745 1279.91 199.327 1292.42 195.436C1293.79 195.011 1294.97 194.082 1295.63 192.903C1296.34 191.664 1296.44 190.285 1295.91 189.134L1280.35 155.257C1280.32 155.21 1280.27 155.184 1280.25 155.134L1279.4 153.278C1277.17 148.728 1271.89 146.238 1266 146.956L1236.89 150.439L1236.76 150.453L1232.98 150.906C1230.32 151.202 1227.75 152.456 1225.87 154.378L1191.38 199.391C1189.32 201.665 1186.77 203.551 1183.92 204.903L1130.38 230.246L1155.12 284.101Z" fill="white"/>
</svg>
